<svg width="204" height="28" viewBox="0 0 204 28" fill="none" xmlns="http://www.w3.org/2000/svg">
<path d="M24.3764 9.98435H18.777C18.6747 9.25992 18.4659 8.61646 18.1506 8.05396C17.8352 7.48293 17.4304 6.99714 16.9361 6.59657C16.4418 6.196 15.8707 5.88918 15.223 5.67611C14.5838 5.46305 13.8892 5.35651 13.1392 5.35651C11.7841 5.35651 10.6037 5.69316 9.59801 6.36646C8.59233 7.03123 7.8125 8.00282 7.25852 9.28123C6.70454 10.5511 6.42755 12.0937 6.42755 13.9091C6.42755 15.7755 6.70454 17.3437 7.25852 18.6136C7.82102 19.8835 8.60511 20.8423 9.61079 21.49C10.6165 22.1378 11.7798 22.4616 13.1008 22.4616C13.8423 22.4616 14.5284 22.3636 15.1591 22.1676C15.7983 21.9716 16.3651 21.6861 16.8594 21.3111C17.3537 20.9275 17.7628 20.463 18.0866 19.9176C18.419 19.3721 18.6491 18.75 18.777 18.0511L24.3764 18.0767C24.2315 19.2784 23.8693 20.4375 23.2898 21.554C22.7187 22.6619 21.9474 23.6548 20.9759 24.5326C20.0128 25.402 18.8622 26.0923 17.5241 26.6037C16.1946 27.1065 14.6903 27.3579 13.0114 27.3579C10.6761 27.3579 8.58807 26.8295 6.74716 25.7727C4.91477 24.7159 3.46591 23.1861 2.40057 21.1832C1.34375 19.1804 0.815338 16.7557 0.815338 13.9091C0.815338 11.054 1.35227 8.62498 2.42613 6.62214C3.5 4.6193 4.95738 3.09373 6.79829 2.04543C8.6392 0.988615 10.7102 0.460205 13.0114 0.460205C14.5284 0.460205 15.9347 0.673273 17.2301 1.09941C18.5341 1.52555 19.6889 2.14771 20.6946 2.96589C21.7003 3.77555 22.5185 4.76844 23.1491 5.94458C23.7883 7.12072 24.1974 8.46731 24.3764 9.98435Z" fill="#287870"/>
<path d="M32.3665 27H26.4347L35.473 0.81816H42.6065L51.6321 27H45.7003L39.142 6.80111H38.9375L32.3665 27ZM31.9957 16.7088H46.0071V21.0298H31.9957V16.7088Z" fill="#287870"/>
<path d="M54.7834 0.81816H61.6101L68.8203 18.4091H69.1271L76.3374 0.81816H83.1641V27H77.7947V9.95879H77.5774L70.8018 26.8721H67.1456L60.37 9.89487H60.1527V27H54.7834V0.81816Z" fill="#287870"/>
<path d="M87.7248 27V0.81816H98.0543C100.04 0.81816 101.732 1.19742 103.13 1.95594C104.527 2.70594 105.593 3.74998 106.326 5.08805C107.067 6.41759 107.438 7.95168 107.438 9.69032C107.438 11.429 107.063 12.963 106.313 14.2926C105.563 15.6221 104.476 16.6576 103.053 17.3991C101.638 18.1406 99.9251 18.5113 97.9137 18.5113H91.3299V14.0753H97.0188C98.0842 14.0753 98.962 13.892 99.6523 13.5255C100.351 13.1505 100.871 12.6349 101.212 11.9787C101.561 11.3139 101.736 10.5511 101.736 9.69032C101.736 8.821 101.561 8.06248 101.212 7.41475C100.871 6.7585 100.351 6.2514 99.6523 5.89344C98.9535 5.52697 98.0671 5.34373 96.9932 5.34373H93.2603V27H87.7248Z" fill="#287870"/>
<path d="M124.901 0.81816V27H119.365V0.81816H124.901Z" fill="#287870"/>
<path d="M151.354 0.81816V27H146.573L135.183 10.5213H134.991V27H129.455V0.81816H134.313L145.614 17.2841H145.844V0.81816H151.354Z" fill="#287870"/>
<path d="M173.289 9.28123C173.11 8.65907 172.858 8.10935 172.534 7.63208C172.211 7.14629 171.814 6.7372 171.346 6.40481C170.885 6.0639 170.357 5.80396 169.76 5.62498C169.172 5.446 168.52 5.35651 167.804 5.35651C166.466 5.35651 165.29 5.6889 164.276 6.35367C163.27 7.01844 162.486 7.98577 161.924 9.25566C161.361 10.517 161.08 12.0596 161.08 13.8835C161.08 15.7074 161.357 17.2585 161.911 18.5369C162.465 19.8153 163.249 20.7912 164.263 21.4645C165.277 22.1292 166.475 22.4616 167.855 22.4616C169.108 22.4616 170.178 22.24 171.064 21.7969C171.959 21.3451 172.641 20.7102 173.11 19.892C173.587 19.0738 173.826 18.1065 173.826 16.99L174.951 17.1562H168.201V12.9886H179.157V16.2869C179.157 18.588 178.671 20.5653 177.699 22.2187C176.728 23.8636 175.39 25.1335 173.685 26.0284C171.98 26.9148 170.029 27.3579 167.83 27.3579C165.375 27.3579 163.219 26.8167 161.361 25.7344C159.503 24.6434 158.054 23.0966 157.015 21.0937C155.983 19.0824 155.468 16.696 155.468 13.9346C155.468 11.8125 155.775 9.92043 156.388 8.2585C157.01 6.58805 157.88 5.17327 158.996 4.01418C160.113 2.85509 161.412 1.97299 162.895 1.36788C164.378 0.762762 165.985 0.460205 167.715 0.460205C169.198 0.460205 170.578 0.677535 171.857 1.11219C173.135 1.53833 174.269 2.14344 175.257 2.92753C176.255 3.71163 177.069 4.64486 177.699 5.72725C178.33 6.80111 178.735 7.98577 178.914 9.28123H173.289Z" fill="#287870"/>
<path d="M203.779 11.7486V16.0696H191.838V11.7486H203.779Z" fill="#287870"/>
</svg>
