<svg width="80" height="80" viewBox="0 0 80 80" fill="none" xmlns="http://www.w3.org/2000/svg">
<path fill-rule="evenodd" clip-rule="evenodd" d="M40 80C62.0914 80 80 62.0913 80 40C80 17.9087 62.0914 0 40 0C17.9086 0 0 17.9087 0 40C0 62.0913 17.9086 80 40 80ZM43.5714 18.5715V36.4285H61.4286C62.3757 36.4285 63.2842 36.8049 63.954 37.4746C64.6238 38.1443 65 39.0527 65 40C65 40.9473 64.6238 41.8557 63.954 42.5254C63.2842 43.1951 62.3757 43.5715 61.4286 43.5715H43.5714V61.4285C43.5714 62.3757 43.1952 63.2842 42.5254 63.9539C41.8556 64.6238 40.9471 65 40 65C39.0529 65 38.1444 64.6238 37.4746 63.9539C36.8048 63.2842 36.4286 62.3757 36.4286 61.4285V43.5715H18.5714C17.6243 43.5715 16.7158 43.1951 16.046 42.5254C15.3762 41.8557 15 40.9473 15 40C15 39.0527 15.3762 38.1443 16.046 37.4746C16.7158 36.8049 17.6243 36.4285 18.5714 36.4285H36.4286V18.5715C36.4286 17.6243 36.8048 16.7158 37.4746 16.0461C38.1444 15.3762 39.0529 15 40 15C40.9471 15 41.8556 15.3762 42.5254 16.0461C43.1952 16.7158 43.5714 17.6243 43.5714 18.5715Z" fill="white"/>
</svg>
